<svg width="430" height="140" viewBox="84.26 178.2 431.74 94.4" xmlns="http://www.w3.org/2000/svg" fill="#9f9f9f">
<path d="M511.6,179.8h-9.8c-2.8,0-4.5,1.7-4.5,4.5v28.9c0,10.6-5.7,16.6-13.7,16.6c-8.4,0-13.1-5.4-13.1-15.9v-29.6  c0-2.8-1.7-4.5-4.5-4.5h-9.8c-2.8,0-4.5,1.7-4.5,4.5v31c0,19.7,10.2,30.9,25.6,30.9c9.2,0,16.3-3.1,21.4-9.4l0.8,3.9  c0.5,2.5,2.2,3.9,4.9,3.9h7.1c2.8,0,4.5-1.7,4.5-4.5v-55.9C516.1,181.4,514.5,179.8,511.6,179.8z"/>
<path d="M443.5,227.5h-17.6c-6.2,0-9.4-3.2-9.4-9.4v-33.9c0-2.8-1.7-4.5-4.5-4.5h-10c-2.8,0-4.5,1.7-4.5,4.5v36.3  c0,14.9,9.1,24,24,24h21.9c2.8,0,4.5-1.7,4.5-4.5V232C448,229.2,446.3,227.5,443.5,227.5z"/>
<path d="M158.8,184.1c-0.3-3-1.8-4.3-4.6-4.3h-7.4c-2.4,0-4,1-5.3,3.1l-18,30.4l-16.7-30.4c-1.1-2.1-3-3.1-5.3-3.1h-8  c-2.8,0-4.3,1.4-4.6,4.3L84.3,240c-0.3,3.1,1.3,4.6,4.2,4.6h8.9c2.8,0,4.5-1.4,4.6-4.3l1.9-31.3l10.8,19.4c1.1,2.1,3,3.1,5.3,3.1  h6.2c2.4,0,4-0.8,5.3-3.1l12.1-20.8l1.4,32.7c0.1,3,1.7,4.3,4.5,4.3h9.7c3,0,4.5-1.5,4.2-4.6L158.8,184.1z"/>
<path d="M384.6,179.8h-7.7c-2.7,0-4.5,1.4-4.9,4l-0.4,3.2c-4.3-4.6-10.6-8.8-21.1-8.8c-17.6,0-30.6,13.8-30.6,33.8  c0,19.6,12.1,34.1,29.5,34.1c10.9,0,18-4.6,22.4-9.4l0.7,3.9c0.4,2.5,2.1,3.9,4.8,3.9h7.4c2.8,0,4.5-1.7,4.5-4.5v-55.9  C389,181.4,387.3,179.8,384.6,179.8z M354.5,229.8c-9.9,0-16.2-6.8-16.2-17.5c0-10.8,6.6-17.8,16.2-17.8c9.9,0,16.2,6.8,16.2,17.5  C370.7,222.8,364.2,229.8,354.5,229.8z"/>
<path d="M308.7,179.8H301c-2.7,0-4.5,1.4-4.9,4l-0.4,3.2c-4.3-4.6-10.6-8.8-21.1-8.8c-17.6,0-30.6,13-30.6,33  c0,19,12,32.4,29.4,32.4c10.8,0,17.2-4.5,21.5-9.2v3.2c0,11.2-6.3,18.3-19.6,18.3c-5.6,0-10.6-1.1-15.8-3.3c-2.7-1.3-4.8-0.7-6,1.9  l-3.1,6.2c-1.3,2.5-0.8,4.6,1.5,6c7.4,4.2,16.5,5.9,25.3,5.9c21.9,0,35.9-13.8,35.9-33.1v-55.2C313.2,181.4,311.5,179.8,308.7,179.8  z M278.7,227.7c-9.7,0-16.2-6.4-16.2-16.4c0-10.5,6.8-16.7,16.2-16.7c9.7,0,16.2,5.7,16.2,16.5C294.9,220.7,288,227.7,278.7,227.7z"/>
<path d="M232.9,179.8h-7.7c-2.7,0-4.5,1.4-4.9,4l-0.4,3.2c-4.3-4.6-10.6-8.8-21.1-8.8c-17.6,0-30.6,13.8-30.6,33.8  c0,19.6,12.1,34.1,29.5,34.1c10.9,0,18-4.6,22.4-9.4l0.7,3.9c0.4,2.5,2.1,3.9,4.8,3.9h7.4c2.8,0,4.5-1.7,4.5-4.5v-55.9  C237.3,181.4,235.7,179.8,232.9,179.8z M202.8,229.8c-9.9,0-16.2-6.8-16.2-17.5c0-10.8,6.6-17.8,16.2-17.8c9.9,0,16.2,6.8,16.2,17.5  C219,222.8,212.5,229.8,202.8,229.8z"/>
</svg>
