<svg width="430" height="140" viewBox="0 0 176 46" xmlns="http://www.w3.org/2000/svg" fill="#9f9f9f">
<g transform="translate(13 8)">
<path d="M38.5605631,4.66666667 C40.2494331,4.66666667 41.8343726,4.90699816 43.3153817,5.44106814 C43.2374339,6.5092081 43.0555556,7.33701657 42.7957294,8.11141805 C41.3926682,7.57734807 39.7297808,7.33701657 38.5345805,7.33701657 C36.274093,7.33701657 35.2347884,8.24493554 35.2347884,9.66022099 C35.2347884,11.0488029 36.2481104,11.8499079 38.0668934,12.6510129 L39.4699546,13.2651934 C42.7697468,14.7071823 44.1468254,16.2292818 44.1468254,18.8195212 C44.1468254,21.8904236 41.8863379,24 37.4692933,24 C35.3387188,24 33.5978836,23.679558 32.1428571,22.985267 C32.1948224,21.8904236 32.3507181,21.1427256 32.6365268,20.2882136 C34.0915533,20.9825046 35.9623016,21.3296501 37.3913454,21.3296501 C39.8077286,21.3296501 41.1588246,20.5285451 41.1588246,18.9530387 C41.1588246,17.4042357 40.1714853,16.6832413 37.7291194,15.5883978 L36.404006,15.0009208 C33.9616402,13.9060773 32.2987528,12.4907919 32.2987528,9.66022099 C32.2987528,6.6160221 34.3513794,4.66666667 38.5605631,4.66666667 Z M12.8896831,0 C13.0062536,0.573264188 13.2161822,1.13225136 13.5199771,1.65395032 L13.5199771,1.65395032 L17.5040456,8.49465662 C17.9557564,9.27015054 18.1999106,10.1281152 18.2376943,10.9929665 C22.5030231,12.0975036 25.4464286,14.4436373 25.4464286,17.1594617 C25.4464286,20.9373281 19.7500612,24 12.723299,24 C5.69636734,24 0,20.9373281 0,17.1594617 C0,14.4438052 2.94374438,12.0983434 7.20873423,10.9936383 C7.16400368,12.0168805 7.40815791,13.0496966 7.9425524,13.9671209 L7.9425524,13.9671209 L11.9264514,20.8079951 C12.2302464,21.3295261 12.440175,21.8885133 12.5567455,22.4617775 L12.5567455,22.4617775 L12.723299,22.1759012 C13.7094042,20.4826471 13.7094042,18.3965231 12.723299,16.703437 L12.723299,16.703437 L9.52642039,11.2136723 C8.55031176,9.5234416 8.55336157,7.44588381 9.53607812,5.75834051 L9.53607812,5.75834051 L9.7024622,5.47246425 C9.81920215,6.04572844 10.0289613,6.60471561 10.3327563,7.12641458 L10.3327563,7.12641458 L15.1136723,15.3353629 C15.4174673,15.8570619 15.6273959,16.416049 15.7439664,16.9893132 L15.7439664,16.9893132 L15.9105199,16.703437 C16.8964557,15.0101829 16.8964557,12.9240589 15.9105199,11.2309727 L15.9105199,11.2309727 L12.7231296,5.75817254 C11.7371938,4.06491843 11.7371938,1.97913036 12.723299,0.285876252 L12.723299,0.285876252 Z M53.1887755,9.4732965 C55.0595238,9.4732965 56.5924981,9.68692449 58.0994898,10.2209945 L58.0994898,23.572744 L55.4752457,23.572744 L55.31935,21.9705341 C54.5918367,23.145488 53.4745843,23.893186 51.6558012,23.893186 C48.226096,23.893186 45.9396259,21.3296501 45.9396259,16.8434622 C45.9396259,12.1436464 48.3819917,9.4732965 53.1887755,9.4732965 Z M78.4438776,4.88029466 L78.4438776,9.92725599 L82.9648526,9.92725599 C82.9128874,10.835175 82.8349395,11.6629834 82.7050265,12.4373849 L78.4438776,12.4373849 L78.4438776,18.9797422 C78.4438776,20.7154696 79.2753212,21.3830571 80.6523998,21.3830571 C81.4838435,21.3830571 82.263322,21.2228361 82.8869048,20.9825046 C82.8089569,21.7836096 82.7050265,22.6915285 82.5491308,23.46593 C81.7696523,23.786372 80.9382086,23.893186 80.1327475,23.893186 C77.3526077,23.893186 75.5857899,22.5847145 75.5857899,19.3268877 L75.5857899,5.30755064 C76.4691988,5.01381215 77.5604686,4.88029466 78.4438776,4.88029466 Z M91.5910809,9.4732965 C93.4618292,9.4732965 94.9948035,9.68692449 96.5017952,10.2209945 L96.5017952,23.572744 L93.877551,23.572744 L93.7216553,21.9705341 C92.9941421,23.145488 91.8768896,23.893186 90.0581066,23.893186 C86.6284014,23.893186 84.3419312,21.3296501 84.3419312,16.8434622 C84.3419312,12.1436464 86.7842971,9.4732965 91.5910809,9.4732965 Z M125.628307,4.88029466 L125.628307,23.572744 L123.004063,23.572744 L122.848167,21.8637201 C122.120654,23.1187845 121.003401,23.893186 119.132653,23.893186 C115.702948,23.893186 113.416478,21.3296501 113.416478,16.8434622 C113.416478,12.1436464 115.858844,9.4732965 120.665627,9.4732965 C121.419123,9.4732965 122.120654,9.553407 122.796202,9.68692449 L122.796202,5.28084715 C123.679611,4.96040516 124.692933,4.88029466 125.628307,4.88029466 Z M134.3065,9.4732965 C138.385771,9.4732965 140.152589,12.2237569 140.152589,15.5883978 C140.152589,16.4162063 140.100624,17.0837937 139.996693,17.8581952 L130.876795,17.8581952 C131.240552,20.2348066 132.591648,21.3830571 135.137944,21.3830571 C136.696901,21.3830571 138.281841,21.0359116 139.710884,20.3683241 C139.606954,21.1427256 139.451058,22.1574586 139.26918,23.038674 C137.970049,23.6528545 136.592971,23.893186 135.059996,23.893186 C130.279195,23.893186 127.966742,21.1694291 127.966742,16.6031308 C127.966742,12.6243094 129.759543,9.4732965 134.3065,9.4732965 Z M66.4139267,9.4732965 C71.1947279,9.4732965 72.7277022,11.3692449 72.7277022,14.6003683 L72.7277022,23.572744 L69.8696145,23.572744 L69.8696145,15.1077348 C69.8696145,12.9981584 69.1940665,11.9834254 66.3359788,11.9834254 C65.6604308,11.9834254 64.8549698,12.0635359 64.0754913,12.1970534 L64.0754913,23.572744 L61.2174036,23.572744 L61.2174036,10.2209945 C63.0361867,9.76703499 65.0368481,9.4732965 66.4139267,9.4732965 Z M104.816232,9.4732965 C109.597033,9.4732965 111.130008,11.3692449 111.130008,14.6003683 L111.130008,23.572744 L108.27192,23.572744 L108.27192,15.1077348 C108.27192,12.9981584 107.596372,11.9834254 104.738284,11.9834254 C104.062736,11.9834254 103.257275,12.0635359 102.477797,12.1970534 L102.477797,23.572744 L99.619709,23.572744 L99.619709,10.2209945 C101.438492,9.76703499 103.439153,9.4732965 104.816232,9.4732965 Z M147.505669,9.4732965 C148.389078,9.4732965 149.376417,9.5 150,9.5801105 C150,10.461326 149.89607,11.5294659 149.740174,12.0902394 C149.064626,12.0101289 148.389078,11.9834254 147.583617,11.9834254 C146.882086,11.9834254 146.180556,12.0368324 145.479025,12.1436464 L145.479025,23.572744 L142.620937,23.572744 L142.620937,10.2209945 C143.84212,9.79373849 145.894747,9.4732965 147.505669,9.4732965 Z M53.1887755,11.9834254 C50.2267574,11.9834254 48.8496788,13.8526703 48.8496788,16.8434622 C48.8496788,19.5672192 49.914966,21.4898711 52.4612623,21.4898711 C53.5785147,21.4898711 54.4879063,21.1160221 55.2414021,20.5285451 L55.2414021,12.1436464 C54.643802,12.0368324 53.9942366,11.9834254 53.1887755,11.9834254 Z M91.5910809,11.9834254 C88.6290627,11.9834254 87.2519841,13.8526703 87.2519841,16.8434622 C87.2519841,19.5672192 88.3172714,21.4898711 90.8635676,21.4898711 C91.9808201,21.4898711 92.8902116,21.1160221 93.6437075,20.5285451 L93.6437075,12.1436464 C93.0461073,12.0368324 92.396542,11.9834254 91.5910809,11.9834254 Z M120.509732,11.9834254 C117.677627,11.9834254 116.326531,13.7992634 116.326531,16.8434622 C116.326531,19.5672192 117.391818,21.4898711 119.938114,21.4898711 C121.081349,21.4898711 122.016723,21.0893186 122.796202,20.4751381 L122.796202,12.2504604 C122.042706,12.0902394 121.263228,11.9834254 120.509732,11.9834254 Z M134.150605,11.9300184 C132.123961,11.9300184 131.058673,13.1316759 130.82483,15.4014733 L137.268519,15.4014733 C137.268519,13.2117864 136.125283,11.9300184 134.150605,11.9300184 Z"/>
</g>
</svg>
