<svg xmlns="http://www.w3.org/2000/svg" id="Layer_2" viewBox="0 0 722.37 154.36">
    <defs>
        <style>.cls-1{fill:#9f9f9f;}.cls-2{fill:#9f9f9f;}.cls-3{fill:#9f9f9f;}</style>
    </defs>
    <g id="horizontal">
        <path class="cls-1"
            d="M.97,71c-.1.1-.21.21-.31.32l-.64.71v.96c-.13,25.97,1.02,61.17,4.69,74.9l.37,1.39,1.39.37c13.08,3.49,45.66,4.71,71.18,4.71,1.26,0,2.5,0,3.72,0h.95s.71-.65.71-.65c.11-.1.22-.21.33-.32,22.71-22.71,22.71-59.67,0-82.39-22.72-22.71-59.68-22.71-82.39,0Z" />
        <path class="cls-2"
            d="M149.73,6.4l-.39-1.34-1.38-.43C124.82-1.54,29.61-1.54,6.47,4.63l-1.39.37-.37,1.39c-1.37,5.14-2.48,13.65-3.3,25.28l-.24,3.48,3.37-.9C48.54,22.53,121.35,8.97,144.92,9.43c.47,23.57-13.09,96.38-24.83,140.39l-.9,3.37,3.48-.24c11.64-.82,20.15-1.93,25.28-3.3l1.39-.37.37-1.39c6.18-23.14,6.18-118.35,0-141.49Z" />
        <path class="cls-3"
            d="M219.39,33.44v8.41h21.16s1.14,15.28-15.96,15.28c-9.23,0-16.55-7.05-16.55-18.89,0-12.47,6.96-19.89,17.1-19.89,6.04,0,11.63,2.85,13.09,8.12l12.99-2.29c-2.18-11.07-13.21-17.5-26.63-17.5-18.27,0-31.65,11.66-31.65,31.45,0,18.71,12.56,29.84,29.57,29.84,9.67,0,18.17-4.17,19.89-11.13h.09l2.58,10.23h8.63v-33.64h-34.31Z" />
        <path class="cls-3"
            d="M259.83,44.2c0-14.96,9.85-23.78,24.99-23.78s24.99,8.82,24.99,23.78-9.85,23.6-24.99,23.6-24.99-8.73-24.99-23.6ZM295.69,44.2c0-8.17-3.99-13.01-10.87-13.01s-10.87,4.83-10.87,13.01,3.99,12.82,10.87,12.82,10.87-4.74,10.87-12.82Z" />
        <path class="cls-3"
            d="M311.02,21.16h16.44l11.8,32.98h.19l12.08-32.98h14.49l-18.95,45.89h-16.81l-19.23-45.89Z" />
        <path class="cls-3"
            d="M414.05,46.8h-32.61c.65,7.52,4.46,10.78,10.78,10.78,5.48,0,9.01-1.95,9.38-6.41h12.45c-.28,10.5-9.01,16.63-22.11,16.63-15.23,0-24.71-8.64-24.71-23.22s9.48-24.15,24.99-24.15c12.82,0,21.83,7.34,21.83,22.39v3.99ZM401.6,38.54c0-5.2-3.53-7.9-9.38-7.9s-9.29,2.6-10.4,8.64h19.79v-.74Z" />
        <path class="cls-3"
            d="M449.15,20.61c-8.36,0-13.37,4.27-15.14,14.67h-.19l-2.1-14.12h-11.46v45.89h14.11v-13.94c0-12.81,4.55-20.8,15.23-20.8,2.51,0,4.55.46,6.14.93v-11.61c-1.22-.37-3.26-1.02-6.61-1.02Z" />
        <path class="cls-3"
            d="M460.96,21.16h10.9l2.66,12.17h.19c2.32-8.73,7.71-12.91,18.11-12.91,11.05,0,18.21,6.04,18.21,17.93v28.7h-14.12v-25.55c0-6.5-3.72-9.38-9.94-9.38-7.43,0-11.89,4.37-11.89,13.1v21.83h-14.12V21.16Z" />
        <path class="cls-3"
            d="M517.07,53.86c0-7.52,5.39-13.01,17.56-13.01h14.96v-3.07c0-5.57-3.16-7.8-9.66-7.8-5.29,0-8.36,2.23-8.36,5.95,0,.28,0,1.02.09,1.95h-13.01c-.09-.74-.19-1.76-.19-2.69,0-9.29,8.18-14.77,22.11-14.77s23.13,6.5,23.13,18.76v27.87h-10.81s-2.66-9.29-2.66-9.29h-.09c-1.39,6.5-6.6,10.03-14.96,10.03-10.68,0-18.11-4.64-18.11-13.93ZM549.58,49.4v-.93h-13.66c-3.81,0-6.13,1.76-6.13,4.37,0,3.53,3.07,5.39,8.17,5.39,7.34,0,11.61-3.25,11.61-8.83Z" />
        <path class="cls-3"
            d="M570.3,21.16h10.9l2.66,12.17h.19c2.32-8.73,7.71-12.91,18.11-12.91,11.05,0,18.21,6.04,18.21,17.93v28.7h-14.12v-25.55c0-6.5-3.72-9.38-9.94-9.38-7.43,0-11.89,4.37-11.89,13.1v21.83h-14.12V21.16Z" />
        <path class="cls-3"
            d="M652.88,67.61l-1.49,4.09.19.09c.65-.46,1.95-1.39,4.92-1.39,5.11,0,7.99,2.6,7.99,7.15,0,5.11-3.99,9.75-13.93,9.75s-13.75-3.9-13.93-9.01h9.38c.19,1.86,1.11,2.88,4.46,2.88,2.79,0,4.37-1.58,4.37-3.72,0-1.67-.93-2.41-4.65-2.41-3.16,0-6.78.19-7.99.28l2.88-7.8c-11.33-1.77-18.95-10.13-18.95-23.32,0-14.96,9.75-23.78,23.87-23.78s22.29,7.52,22.29,20.25h-12.45c-.09-5.95-3.62-9.48-9.38-9.48-6.6,0-10.22,4.55-10.22,12.91s3.72,12.91,9.94,12.91,9.66-3.44,9.75-9.29h12.45c0,12.08-7.8,18.86-19.51,19.88Z" />
        <path class="cls-3"
            d="M675.74,53.86c0-7.52,5.39-13.01,17.56-13.01h14.96v-3.07c0-5.57-3.16-7.8-9.66-7.8-5.29,0-8.36,2.23-8.36,5.95,0,.28,0,1.02.09,1.95h-13.01c-.09-.74-.19-1.76-.19-2.69,0-9.29,8.18-14.77,22.11-14.77s23.13,6.5,23.13,18.76v27.87h-10.81s-2.66-9.29-2.66-9.29h-.09c-1.39,6.5-6.6,10.03-14.96,10.03-10.68,0-18.11-4.64-18.11-13.93ZM708.25,49.4v-.93h-13.66c-3.81,0-6.13,1.76-6.13,4.37,0,3.53,3.07,5.39,8.17,5.39,7.34,0,11.61-3.25,11.61-8.83Z" />
        <path class="cls-3"
            d="M194.34,88.23h26.94c14.4,0,22.95,5.94,22.95,15.98,0,6.78-3.25,11.61-8.73,13.1v.09c6.6,1.49,11.05,6.41,11.05,14.12,0,11.24-7.9,17.84-23.32,17.84h-28.89v-61.12ZM222.3,113.59c5.48,0,8.55-2.41,8.55-6.97s-3.07-7.34-9.66-7.34h-11.61v14.31h12.73ZM223.23,138.3c5.57,0,8.83-3.16,8.83-8.36,0-4.27-3.34-7.15-9.2-7.15h-13.28v15.51h13.66Z" />
        <path class="cls-3"
            d="M281.65,102.91c-8.36,0-13.37,4.27-15.14,14.67h-.19l-2.1-14.12h-11.46v45.89h14.11v-13.94c0-12.81,4.55-20.8,15.23-20.8,2.51,0,4.55.46,6.14.93v-11.61c-1.22-.37-3.26-1.02-6.61-1.02Z" />
        <path class="cls-3"
            d="M290.12,136.17c0-7.52,5.39-13.01,17.56-13.01h14.96v-3.07c0-5.57-3.16-7.8-9.66-7.8-5.29,0-8.36,2.23-8.36,5.95,0,.28,0,1.02.09,1.95h-13.01c-.09-.74-.19-1.76-.19-2.69,0-9.29,8.18-14.77,22.11-14.77s23.13,6.5,23.13,18.76v27.87h-10.81s-2.66-9.29-2.66-9.29h-.09c-1.39,6.5-6.6,10.03-14.96,10.03-10.68,0-18.11-4.64-18.11-13.93ZM322.63,131.71v-.93h-13.66c-3.81,0-6.13,1.76-6.13,4.37,0,3.53,3.07,5.39,8.17,5.39,7.34,0,11.61-3.25,11.61-8.83Z" />
        <path class="cls-3"
            d="M342.51,133.94h12.63c0,4.27,2.14,7.06,10.22,7.06,7.34,0,9.94-2.14,9.94-5.48,0-1.67-.84-2.97-3.25-3.53-2.42-.56-6.13-.93-10.68-1.3-6.6-.56-11.71-1.58-14.49-3.53-2.6-1.86-4.37-5.2-4.37-9.01,0-9.94,10.22-15.42,22.94-15.42,15.05,0,21.92,5.76,21.92,16.44h-12.45c-.09-4.83-2.32-7.34-9.29-7.34-6.32,0-9.1,2.14-9.1,5.29,0,1.95.74,3.44,3.34,4.09,2.32.56,6.41.93,11.33,1.39,5.67.56,9.66,1.12,13.1,3.07,2.97,1.67,5.11,5.11,5.11,9.1,0,9.66-8.27,15.33-23.97,15.33s-22.94-6.87-22.94-16.16Z" />
        <path class="cls-3"
            d="M396.02,87.4h14.12v11.24h-14.12v-11.24ZM396.02,103.47h14.12v45.89h-14.12v-45.89Z" />
        <path class="cls-3" d="M417.76,84.98h14.12v64.38h-14.12v-64.38Z" />
    </g>
</svg>
